<?xml version="1.0" encoding="UTF-8"?>
<svg id="Layer_1" data-name="Layer 1" xmlns="http://www.w3.org/2000/svg" viewBox="0 0 792 432">
  <defs>
    <style>
      .cls-1 {
        fill: #c54939;
      }

      .cls-2 {
        fill: #fbb040;
      }

      .cls-3 {
        fill: #ede331;
      }

      .cls-4 {
        fill: #fed8b0;
      }

      .cls-5 {
        fill: #d8d02e;
      }

      .cls-6 {
        fill: #f7941d;
      }

      .cls-7 {
        fill: #ef4136;
      }

      .cls-8 {
        fill: #006838;
      }

      .cls-9 {
        fill: #39b54a;
      }
    </style>
  </defs>
  <g>
    <path class="cls-8" d="M321.09,262.63c20.23,80.67,30.75,141.07,17.55,182.14-2.47,7.68-7.92,23.92-21.15,30.27-17.61,8.44-36.58-5.06-38.85-6.74-13.28-9.87-20.27-24.78-23.74-32.45-29.43-65.18-48.69-150.35-50.61-159-2.48-11.15-15.17-66.2-17.51-122.02-.53-12.61-.79-31.23,8.5-45.16,8.29-12.43,20.59-15.72,25.64-17.08,0,0,15.11-4.05,30.42,1.48,15.41,5.56,35.02,30.14,69.74,168.57Z"/>
    <g>
      <path class="cls-9" d="M307.59,476.28c-32.42-54.4-57.51-113.17-76.22-173.66-9.12-30.48-14.43-61.67-20.11-93-4.15-25.46-6.37-51.58-3.91-77.36.47-5.97,1.36-11.9,2.12-17.83,1.58-6.98,4.27-13.83,8.14-19.85-3,6.45-4.88,13.26-5.77,20.3-.07,3.43-.24,7.9-.39,11.69-.5,17.6.72,35.22,3.14,52.64,3.56,25.32,9.73,49.99,15,75.09,1.61,7.72,3.31,15.29,5.18,22.89,18.06,68.41,44.29,134.33,72.82,199.1h0Z"/>
      <polygon class="cls-4" points="209.24 120.77 200.96 102.85 206.8 121.99 191.83 124.51 207.24 125.52 206.28 145 209.97 126.48 224.34 136 211.2 123.54 221.04 109.94 209.24 120.77"/>
      <polygon class="cls-4" points="209.77 167.43 197.53 153.48 207.91 169.71 195.16 178.8 209.25 172.98 213.61 192.55 211.95 172.72 227.4 175.73 212.27 169.3 217.46 151.59 209.77 167.43"/>
      <polygon class="cls-4" points="220.51 221.38 214 202.49 217.92 222.15 202.58 222.07 218 225.67 215.03 244.5 220.65 227.06 234.15 238.78 222.19 224.41 233.51 212.82 220.51 221.38"/>
      <polygon class="cls-4" points="230.21 276.4 226.95 256.65 227.48 276.4 212.11 271.96 226.96 279.75 220.72 296.76 229.37 281.83 240.88 296.78 231.38 279.76 244.73 271.99 230.21 276.4"/>
      <polygon class="cls-4" points="250.26 340.81 265.44 339.54 249.99 337.28 251.92 318.07 247.3 336.11 233.31 325.51 245.91 338.91 235.33 351.58 247.74 341.82 255.19 360.24 250.26 340.81"/>
      <polygon class="cls-4" points="271.07 393.97 265.53 374.72 268.42 394.51 252.99 393.08 268.32 397.99 264.32 416.36 270.9 399.61 283.86 412.39 272.6 397.12 284.61 386.65 271.07 393.97"/>
      <polygon class="cls-4" points="292.05 441.06 283.76 423.13 289.6 442.27 274.64 444.8 290.05 445.8 289.09 465.29 292.77 446.76 307.14 456.28 294.01 443.83 303.85 430.23 292.05 441.06"/>
    </g>
    <g>
      <path class="cls-9" d="M272.87,461.14c-6.31-10.1-14.27-19.04-20.07-29.5-27.31-52.96-44.4-110.67-56.68-168.8-4.87-23.29-9.34-46.7-12.01-70.36-2.27-23.4-5.13-49.18,5.49-71.2,3.46-7.19,7.82-13.97,13.15-19.88-6.46,9.73-11.4,20.65-13.67,32.1-3.24,19.2-.03,38.81,2.8,57.92,3.89,23.2,8.77,46.33,13.91,69.33,12.67,57.47,27.96,114.67,50.28,169.22,4.86,10.76,11.89,20.46,16.81,31.19h0Z"/>
      <polygon class="cls-4" points="187.58 138.11 179.3 120.19 185.14 139.33 170.17 141.86 185.58 142.86 184.62 162.34 188.31 143.82 202.68 153.34 189.54 140.89 199.38 127.29 187.58 138.11"/>
      <polygon class="cls-4" points="189.92 202.21 185.95 182.57 187.2 202.38 171.78 198.85 186.81 205.78 181.24 223.25 189.28 207.72 201.26 222.05 191.2 205.52 204.18 196.91 189.92 202.21"/>
      <polygon class="cls-4" points="198.11 244.96 186.48 230.15 196.12 247.07 182.84 255.03 197.31 250.42 200.73 270.14 200.04 250.38 215.42 254.61 200.53 247.01 206.62 229.9 198.11 244.96"/>
      <polygon class="cls-4" points="211.41 299.03 203.12 281.11 208.96 300.25 194 302.78 209.41 303.78 208.45 323.26 212.13 304.74 226.5 314.26 213.36 301.81 223.21 288.21 211.41 299.03"/>
      <polygon class="cls-4" points="226.31 350.11 233.89 334.17 224.05 347.77 213.58 331.63 221.86 349.56 207.82 355.53 222.78 353 224.57 372.83 225.54 353.35 240.69 359.63 226.31 350.11"/>
      <polygon class="cls-4" points="234.46 388.73 219.24 389.71 234.7 392.26 232.53 411.4 237.37 393.48 251.26 404.33 238.8 390.71 249.54 378.28 237 387.78 229.76 369.24 234.46 388.73"/>
      <polygon class="cls-4" points="253.46 436.14 238.03 434.72 253.35 439.63 249.36 458 255.94 441.25 268.9 454.02 257.64 438.76 269.65 428.29 256.1 435.61 250.57 416.36 253.46 436.14"/>
    </g>
    <g>
      <path class="cls-9" d="M235.89,91.62c13.1.03,26.13,5.91,34.28,16.33,2.79,3.44,5.1,7.29,6.98,11.28,7.22,15.57,13.43,31.54,19.09,47.68,11.38,32.25,20.74,65.13,29.07,98.29,8.08,33.26,15.03,66.83,18.9,100.86,4.6,35.24,3.95,69.12-15.85,99.97,11.03-23.1,14.43-48.68,11.57-73.8-9.68-75.64-29.87-149.74-51.06-222.88-3.45-11.31-7.92-25.1-11.8-36.28-2.49-6.51-5.77-17.14-9.98-22.81-7.03-10.52-18.56-16.93-31.19-18.63h0Z"/>
      <polygon class="cls-4" points="269.41 103.73 263.26 84.7 266.79 104.42 251.41 103.83 266.81 107.92 263.45 126.59 269.43 109.41 282.74 121.53 271.04 106.81 282.62 95.64 269.41 103.73"/>
      <polygon class="cls-4" points="291.38 162.87 279.87 147.92 289.37 164.94 276.02 172.71 290.54 168.3 293.8 188.05 293.27 168.31 308.64 172.75 293.79 164.95 300.03 147.94 291.38 162.87"/>
      <polygon class="cls-4" points="306.91 208.72 300.77 189.7 304.3 209.41 288.92 208.83 304.32 212.92 300.96 231.58 306.94 214.4 320.25 226.52 308.54 211.81 320.13 200.63 306.91 208.72"/>
      <polygon class="cls-4" points="319.02 250.79 317.23 230.96 316.27 250.45 301.12 244.17 315.49 253.68 307.91 269.63 317.76 256.03 328.23 272.16 319.94 254.24 333.98 248.27 319.02 250.79"/>
      <polygon class="cls-4" points="327.94 288.54 319.65 270.62 325.5 289.76 310.53 292.29 325.94 293.29 324.98 312.77 328.66 294.25 343.03 303.77 329.9 291.32 339.74 277.72 327.94 288.54"/>
      <polygon class="cls-4" points="337.41 332.13 336.52 312.35 334.66 331.58 319.71 324.21 333.73 334.73 325.38 349.96 335.9 337.22 345.69 354 338.18 335.62 352.57 330.76 337.41 332.13"/>
      <polygon class="cls-4" points="342.88 367.73 333.09 350.95 340.6 369.34 326.21 374.2 341.37 372.83 342.26 392.61 344.12 373.37 359.07 380.74 345.06 370.23 353.4 355 342.88 367.73"/>
      <polygon class="cls-4" points="343.12 412.6 339.59 392.89 340.4 412.67 325 408.58 339.93 416.04 333.94 433.23 342.36 418.07 354.06 432.78 344.33 415.94 357.55 407.85 343.12 412.6"/>
    </g>
    <g>
      <path class="cls-9" d="M222.48,91.87c25.93,12.51,41.82,36.77,51.97,62.89,6.84,17.64,11.91,36.68,16.3,55.1,4.77,20.49,9.09,41.48,13.08,62.08,13.35,66.44,16.71,135.2,9.36,202.53-.64-67.45-5.68-134.57-19.17-200.64-2.67-14.25-6.87-35.15-9.69-49.63-10.39-47.42-18-103.64-61.86-132.33h0Z"/>
      <polygon class="cls-4" points="245.94 111.26 237.65 93.34 243.5 112.48 228.53 115.01 243.94 116.01 242.98 135.49 246.66 116.97 261.03 126.49 247.9 114.04 257.74 100.44 245.94 111.26"/>
      <polygon class="cls-4" points="270.7 145.44 271.18 125.85 267.96 144.58 253.42 135.61 266.81 147.58 257.34 161.62 268.82 150.28 277.51 167.93 271.23 148.96 286.06 145.83 270.7 145.44"/>
      <polygon class="cls-4" points="281.35 194.57 268.74 181.2 279.57 196.95 267.19 206.75 281.01 200.17 285.98 219.59 283.69 199.77 299.14 201.97 283.9 196.31 288.48 178.25 281.35 194.57"/>
      <polygon class="cls-4" points="295.57 241.41 293.78 221.58 292.82 241.07 277.67 234.79 292.04 244.3 284.47 260.25 294.31 246.65 304.78 262.78 296.5 244.86 310.54 238.89 295.57 241.41"/>
      <polygon class="cls-4" points="304.44 294.16 291.94 280.61 302.63 296.51 290.13 306.09 304.04 299.75 308.82 319.22 306.72 299.39 322.18 301.85 306.97 295.94 311.74 277.99 304.44 294.16"/>
      <polygon class="cls-4" points="311.89 343.48 303.6 325.56 309.44 344.7 294.48 347.22 309.89 348.23 308.93 367.71 312.61 349.19 326.98 358.71 313.84 346.25 323.68 332.65 311.89 343.48"/>
      <polygon class="cls-4" points="311.23 387.35 305.12 368.31 308.62 388.03 293.23 387.39 308.62 391.53 305.23 410.18 311.24 393.02 324.53 405.18 312.86 390.43 324.46 379.3 311.23 387.35"/>
      <polygon class="cls-4" points="318.98 433.48 331.68 424.3 317.62 430.22 313.18 410.67 314.92 430.49 299.48 427.59 314.62 433.93 309.51 451.68 317.12 435.77 329.42 449.65 318.98 433.48"/>
    </g>
    <g>
      <path class="cls-9" d="M312.09,476.84c-41.93-131.84-73.02-267.23-92.65-404.19,33.21,134.24,64.02,268.9,92.65,404.19h0Z"/>
      <polygon class="cls-4" points="235.48 136.03 231.18 116.76 232.41 136.27 217.2 133.31 232 140.14 226.9 157.58 234.82 142.3 246.88 156.04 236.97 139.76 249.52 130.81 235.48 136.03"/>
      <polygon class="cls-4" points="244.41 181.1 236.12 163.18 241.96 182.32 227 184.84 242.41 185.85 241.45 205.33 245.13 186.81 259.5 196.33 246.37 183.87 256.21 170.27 244.41 181.1"/>
      <polygon class="cls-4" points="255.92 235.67 270.32 230.81 255.15 232.18 254.26 212.4 252.4 231.63 237.46 224.27 251.47 234.78 243.13 250.01 253.65 237.28 263.43 254.06 255.92 235.67"/>
      <polygon class="cls-4" points="265.32 279.51 257.03 261.58 262.87 280.73 247.91 283.25 263.32 284.26 262.36 303.74 266.04 285.22 280.41 294.73 267.27 282.28 277.12 268.68 265.32 279.51"/>
      <polygon class="cls-4" points="277.86 330.65 274.33 310.94 275.14 330.71 259.74 326.62 274.67 334.09 268.68 351.28 277.1 336.12 288.8 350.83 279.07 333.99 292.29 325.9 277.86 330.65"/>
      <polygon class="cls-4" points="286.57 365.72 278.28 347.8 284.12 366.94 269.16 369.47 284.57 370.47 283.61 389.95 287.29 371.43 301.66 380.95 288.52 368.5 298.36 354.9 286.57 365.72"/>
      <polygon class="cls-4" points="296.76 412.33 288.47 394.41 294.32 413.55 279.35 416.07 294.76 417.08 293.8 436.56 297.48 418.04 311.85 427.56 298.72 415.1 308.56 401.5 296.76 412.33"/>
    </g>
  </g>
  <g>
    <path class="cls-8" d="M472.52,255.42c1.87,83.15-2.69,144.37-32,181.38-5.48,6.92-17.37,21.5-36.31,24.68-25.21,4.23-45.59-13.22-48-15.37-14.14-12.63-18.68-28.73-20.84-36.99-18.35-70.15-17.63-157.47-17.51-166.33.15-11.42.31-67.92,14.03-122.82,3.1-12.41,8.35-30.6,24.49-42.05,14.4-10.22,31.23-10.65,38.14-10.82,0,0,20.67-.52,38.73,8.34,18.18,8.91,36.07,37.29,39.28,179.99Z"/>
    <g>
      <path class="cls-9" d="M391.09,460.44c-24.51-59.16-39.2-122.26-45.2-185.98-2.26-23.15-.7-48.93.34-72.21,1.36-36.05,6.06-72.91,21.84-105.8,1.66-3.54,3.76-7.77,5.27-10.84,4.27-6.77,9.86-12.68,16.32-17.33-5.48,5.29-10.48,12.13-13.63,18.61-1.08,3.12-2.73,7.55-4.05,11.14-15.19,41.17-14.77,85.1-15.6,128.47-.94,23.62.42,47.13,3.25,70.58,6.2,55.2,17.33,109.64,31.47,163.37h0Z"/>
      <polygon class="cls-4" points="371.02 91.89 365.72 72.55 367.51 92.52 347.48 91.58 367.02 96.06 359.94 114.81 370.24 97.61 385.89 110.14 372.71 95.03 389.46 84.02 371.02 91.89"/>
      <polygon class="cls-4" points="357.71 137.45 346.13 121.09 354.62 139.25 335.48 145.21 355.38 142.74 355.13 162.79 358.93 143.1 377.92 149.53 360.37 139.84 372.36 123.76 357.71 137.45"/>
      <polygon class="cls-4" points="355.36 192.43 352.65 172.56 351.8 192.59 332.07 189.04 350.85 196.04 341.37 213.7 353.84 198 367.71 212.47 356.62 195.77 374.68 187.05 355.36 192.43"/>
      <polygon class="cls-4" points="351.36 248.22 353.08 228.24 347.85 247.59 329.38 239.79 346.17 250.75 333.03 265.9 348.65 253.32 358.99 270.49 351.86 251.75 371.38 247.22 351.36 248.22"/>
      <polygon class="cls-4" points="357.87 315.5 377.8 317.7 358.57 312 366.82 293.72 355.46 310.25 340.63 296.75 352.84 312.66 335.42 322.6 354.32 315.91 358.39 335.54 357.87 315.5"/>
      <polygon class="cls-4" points="368.73 371.99 367.37 351.99 365.16 371.91 345.71 367.03 363.98 375.28 353.33 392.27 366.83 377.44 379.68 392.83 369.76 375.41 388.36 367.93 368.73 371.99"/>
      <polygon class="cls-4" points="381.63 422.61 376.33 403.27 378.12 423.24 358.09 422.3 377.63 426.78 370.56 445.53 380.85 428.33 396.5 440.86 383.32 425.75 400.07 414.74 381.63 422.61"/>
    </g>
    <g>
      <path class="cls-9" d="M350.92,437.82c-4.94-11.14-12.13-21.1-16.46-32.57-19.22-57.98-23.74-119.93-22.01-180.68,1.49-36.69,3.1-102.26,27.13-130.54,8-9.39,17.99-16.88,28.89-22.49-9.64,7.03-18.51,15.43-25.31,25.2-10.94,16.49-13.49,36.86-15.81,56.15-2.45,23.79-3.16,47.94-3.53,71.92-1.14,59.9,1.53,120.44,14.6,179.08,3.2,11.61,9.25,22.33,12.5,33.93h0Z"/>
      <polygon class="cls-4" points="337.93 103.87 332.63 84.53 334.41 104.5 314.39 103.57 333.93 108.04 326.85 126.8 337.14 109.59 352.8 122.12 339.62 107.01 356.37 96 337.93 103.87"/>
      <polygon class="cls-4" points="321.71 166.83 322.5 146.79 318.17 166.37 299.36 159.43 316.64 169.6 304.23 185.34 319.24 172.05 330.38 188.72 322.37 170.34 341.67 164.89 321.71 166.83"/>
      <polygon class="cls-4" points="319.44 210.32 308.91 193.26 316.25 211.92 296.77 216.66 316.78 215.45 315.28 235.44 320.31 216.03 338.85 223.65 321.95 212.87 334.92 197.58 319.44 210.32"/>
      <polygon class="cls-4" points="320.36 266 315.06 246.66 316.85 266.63 296.82 265.7 316.37 270.17 309.29 288.93 319.58 271.72 335.23 284.25 322.05 269.14 338.8 258.13 320.36 266"/>
      <polygon class="cls-4" points="324.25 319.13 338.78 305.31 322.03 316.33 313.38 298.24 318.68 317.58 298.81 320.21 318.83 321.14 315.2 340.86 322.27 322.1 339.9 331.65 324.25 319.13"/>
      <polygon class="cls-4" points="323.16 358.59 303.27 356.09 322.4 362.08 313.88 380.22 325.49 363.88 340.11 377.59 328.15 361.5 345.71 351.83 326.71 358.23 322.95 338.54 323.16 358.59"/>
      <polygon class="cls-4" points="333.41 409.07 313.96 404.18 332.23 412.44 321.57 429.43 335.07 414.6 347.93 429.99 338.01 412.57 356.61 405.09 336.98 409.15 335.62 389.15 333.41 409.07"/>
    </g>
    <g>
      <path class="cls-9" d="M414.08,69.54c20.33,3.06,39.8,15.41,44.81,36.63,2.16,8.38,4.25,17.5,5.85,25.98,7.55,41.35,10.55,83.4,11.55,125.37.54,35.4-.63,70.97-5.9,106.03-.91,6.43-2.27,13.31-3.54,19.7-5.43,28.61-22.36,55.23-45.96,71.91,19.05-18.17,32.43-41.26,37.06-66.97,4.36-25.75,5.88-51.89,6.66-78.01.96-34.89.11-70.07-1.71-104.92-1.42-26.17-3.29-52.39-6.9-78.35-.77-6.02-2.07-13.39-3.1-19.37-3.12-20.11-20.33-32.36-38.84-38h0Z"/>
      <polygon class="cls-4" points="453.6 88.93 451.39 69.01 450.03 89.01 430.4 84.95 449 92.43 439.08 109.85 451.93 94.46 465.43 109.29 454.78 92.31 473.05 84.05 453.6 88.93"/>
      <polygon class="cls-4" points="464.18 151.52 453.83 134.35 460.97 153.08 441.44 157.62 461.46 156.62 459.74 176.59 464.98 157.24 483.44 165.05 466.65 154.09 479.79 138.94 464.18 151.52"/>
      <polygon class="cls-4" points="470.43 199.7 468.22 179.77 466.86 199.77 447.22 195.72 465.83 203.19 455.9 220.61 468.76 205.23 482.26 220.05 471.6 203.07 489.87 194.81 470.43 199.7"/>
      <polygon class="cls-4" points="473.4 243.41 477.04 223.7 469.96 242.45 452.34 232.9 467.99 245.43 453.46 259.24 470.21 248.22 478.85 266.31 473.55 246.98 493.43 244.35 473.4 243.41"/>
      <polygon class="cls-4" points="473.57 282.2 468.27 262.87 470.06 282.84 450.03 281.9 469.58 286.38 462.5 305.13 472.79 287.93 488.44 300.46 475.26 285.35 492.01 274.34 473.57 282.2"/>
      <polygon class="cls-4" points="472.7 326.8 477.48 307.33 469.32 325.64 452.28 315.08 467.18 328.5 451.87 341.44 469.23 331.42 476.81 349.98 472.65 330.37 492.64 328.9 472.7 326.8"/>
      <polygon class="cls-4" points="469.07 362.72 461.5 344.16 465.66 363.77 445.67 365.24 465.6 367.34 460.82 386.81 468.98 368.49 486.02 379.06 471.13 365.64 486.44 352.7 469.07 362.72"/>
      <polygon class="cls-4" points="455.93 406.48 457.29 386.47 452.41 405.92 433.8 398.44 450.79 409.1 437.93 424.48 453.31 411.62 463.97 428.61 456.49 410 475.93 405.12 455.93 406.48"/>
    </g>
    <g>
      <path class="cls-9" d="M396.73,66.74c32.93,19.55,46.17,51.5,49.86,88.24,3.51,34.55,1.57,69.33.17,103.89-2.72,69.23-19.06,138.16-47.91,201.07,17.45-57.6,30.49-116.1,35-176.03.87-15.28,2.05-36.29,2.67-51.34,1.11-25.55,2.51-51.41,1.11-76.82-.99-16.86-3.51-33.67-10.09-49.11-6.51-15.64-17.62-29.26-30.8-39.9h0Z"/>
      <polygon class="cls-4" points="421.13 90.95 415.83 71.61 417.61 91.58 397.59 90.65 417.13 95.12 410.05 113.88 420.34 96.67 436 109.2 422.82 94.09 439.57 83.08 421.13 90.95"/>
      <polygon class="cls-4" points="442.76 129.85 449.25 110.88 439.5 128.4 423.46 116.36 437.11 131.05 420.71 142.58 438.89 134.14 444.79 153.3 442.39 133.4 462.43 133.71 442.76 129.85"/>
      <polygon class="cls-4" points="441.76 180.11 429.52 164.24 438.74 182.03 419.86 188.77 439.64 185.49 440.21 205.53 443.2 185.71 462.44 191.36 444.51 182.38 455.83 165.84 441.76 180.11"/>
      <polygon class="cls-4" points="446.03 228.96 449.66 209.24 442.59 228 424.96 218.45 440.61 230.98 426.08 244.79 442.83 233.77 451.48 251.86 446.18 232.53 466.05 229.89 446.03 228.96"/>
      <polygon class="cls-4" points="441.63 282.35 429.59 266.31 438.59 284.23 419.62 290.72 439.44 287.7 439.75 307.74 443 287.96 462.16 293.86 444.35 284.65 455.88 268.25 441.63 282.35"/>
      <polygon class="cls-4" points="436.43 332.07 431.13 312.73 432.92 332.7 412.89 331.77 432.43 336.24 425.35 355 435.65 337.79 451.3 350.32 438.12 335.22 454.87 324.2 436.43 332.07"/>
      <polygon class="cls-4" points="422.43 374.65 420.27 354.71 418.86 374.71 399.24 370.61 417.83 378.13 407.86 395.53 420.75 380.17 434.22 395.03 423.6 378.02 441.89 369.81 422.43 374.65"/>
      <polygon class="cls-4" points="418.58 421.34 437.69 415.27 417.81 417.85 417.95 397.8 414.26 417.51 395.23 411.18 412.83 420.78 400.94 436.92 415.51 423.15 427.18 439.45 418.58 421.34"/>
    </g>
    <g>
      <path class="cls-9" d="M396.71,462c-13.3-137.77-12.73-277.03,1.87-414.67,1.33,133.86.61,280.82-1.87,414.67h0Z"/>
      <polygon class="cls-4" points="400.23 112.7 400.47 92.96 396.21 112.24 377.51 105.9 394.52 115.92 382.72 131.74 397.5 118.66 408.91 134.77 401.03 116.67 419.88 110.8 400.23 112.7"/>
      <polygon class="cls-4" points="398.22 158.62 392.92 139.28 394.7 159.25 374.68 158.32 394.22 162.79 387.14 181.55 397.43 164.34 413.09 176.87 399.91 161.76 416.66 150.75 398.22 158.62"/>
      <polygon class="cls-4" points="396.68 214.38 416.68 212.91 396.74 210.81 401.52 191.34 393.36 209.65 376.32 199.09 391.22 212.5 375.91 225.45 393.27 215.43 400.85 233.99 396.68 214.38"/>
      <polygon class="cls-4" points="395.64 259.2 390.34 239.87 392.12 259.84 372.1 258.9 391.64 263.38 384.56 282.13 394.86 264.93 410.51 277.46 397.33 262.35 414.08 251.34 395.64 259.2"/>
      <polygon class="cls-4" points="396.46 311.86 397.82 291.86 392.93 311.3 374.33 303.83 391.31 314.49 378.46 329.87 393.84 317.01 404.5 333.99 397.02 315.39 416.46 310.5 396.46 311.86"/>
      <polygon class="cls-4" points="397.16 347.99 391.86 328.66 393.64 348.63 373.62 347.69 393.16 352.16 386.08 370.92 396.37 353.72 412.03 366.24 398.84 351.14 415.6 340.12 397.16 347.99"/>
      <polygon class="cls-4" points="396.31 395.7 391.01 376.36 392.8 396.33 372.77 395.39 392.31 399.87 385.24 418.62 395.53 401.42 411.18 413.95 398 398.84 414.75 387.83 396.31 395.7"/>
    </g>
  </g>
  <g>
    <path class="cls-1" d="M327.77,50.97c12.73-2.27,12.76-1.73,34.57,4.66,21.81,6.39,30.73-5.99,36.87,15.57,1.75,6.13-20.6,5.95-42.42-.44-21.81-6.39-35.04-18.73-29.02-19.8Z"/>
    <path class="cls-1" d="M342.91,24.9c12.71,2.56,12.55,3.08,30.87,17.06,18.32,13.99,30.85,5.71,29.36,28.1-.42,6.37-21.34-2.02-39.65-16s-26.58-30.37-20.57-29.16Z"/>
    <path class="cls-1" d="M367.31,4.99c10.27,8.29,9.9,8.67,20.25,29.76,10.35,21.09,25.14,19.65,14.13,38.86-3.13,5.46-18.22-11.87-28.57-32.97-10.35-21.09-10.66-39.57-5.81-35.65Z"/>
    <path class="cls-1" d="M467.98,49.14c-12.81-1.93-12.81-1.4-34.39,5.56-21.57,6.96-30.93-5.18-36.3,16.53-1.53,6.17,20.81,5.41,42.38-1.54s34.35-19.63,28.3-20.55Z"/>
    <path class="cls-1" d="M451.91,23.47c-12.61,2.9-12.44,3.4-30.24,17.86-17.81,14.46-30.63,6.51-28.34,28.86.65,6.36,21.25-2.57,39.06-17.03,17.81-14.46,25.48-31.05,19.52-29.69Z"/>
    <path class="cls-1" d="M426.81,4.21c-9.96,8.55-9.59,8.92-19.18,30.28-9.59,21.36-24.43,20.3-12.73,39.21,3.33,5.38,17.79-12.34,27.38-33.7,9.59-21.36,9.24-39.83,4.53-35.79Z"/>
    <path class="cls-7" d="M389.9,79.09c1.33,2.79,19.95,2.52,34.36-4.92,14.41-7.43,21.26-20.34,17.32-20.29-4.86.06-14.28-1.31-28.7,6.12-14.41,7.43-24.31,16.29-22.98,19.08Z"/>
    <path class="cls-7" d="M389.85,76.15c2.25,2.04,19.29-5.72,29.81-18.41s12.06-27.39,8.45-25.75c-4.45,2.02-13.63,4.55-24.15,17.24-10.52,12.69-16.36,24.88-14.11,26.92Z"/>
    <path class="cls-1" d="M394.11,1.17c-5.31,12.29-4.82,12.45-4.4,36.1.42,23.65-13.3,29.54,5.14,41.17,5.24,3.31,10.72-19.31,10.29-42.96s-8.52-40.12-11.03-34.31Z"/>
    <path class="cls-7" d="M389.5,79.28c2.81,1.01,15.77-12.9,20.93-28.82,5.16-15.92,1.3-30.19-1.45-27.24-3.38,3.62-10.96,9.58-16.12,25.51-5.16,15.92-6.18,29.54-3.37,30.55Z"/>
    <path class="cls-7" d="M406.87,78.86c-1.23,2.82-19.85,3.04-34.52-4.02-14.67-7.05-21.98-19.77-18.03-19.82,4.86-.06,14.23-1.68,28.9,5.37,14.67,7.05,24.88,15.65,23.65,18.47Z"/>
    <path class="cls-7" d="M406.82,75.93c-2.17,2.1-19.48-5.21-30.45-17.62s-13.03-27.06-9.36-25.52c4.52,1.9,13.78,4.19,24.75,16.6,10.97,12.41,17.24,24.44,15.07,26.54Z"/>
  </g>
  <g>
    <path class="cls-8" d="M465.48,331.43c-20.18,51.46-29.54,90.61-10.59,119.95,3.54,5.49,11.32,17.12,28.16,23.15,22.41,8.02,45.17,1.49,47.88.66,15.9-4.86,23.68-13.93,27.51-18.62,32.57-39.83,51.26-94.44,53.13-99.99,2.4-7.15,14.78-42.42,14.25-79.59-.12-8.4-.95-20.87-13.35-31.45-11.07-9.45-26.57-13.31-32.93-14.89,0,0-19.03-4.74-37.73-3.07-18.82,1.67-41.69,15.56-76.32,103.86Z"/>
    <g>
      <path class="cls-9" d="M495.43,476.68c30.59-37.38,59.38-76.75,78.88-121.01,3.98-9.54,6.96-20.57,10.24-30.4,7.74-23.12,13.57-45.69,9.27-70.19-.43-2.49-1.12-5.99-1.4-7.89-1.57-4.91-5.01-10.52-8.66-14.78,4.58,3.85,8.53,8.55,11.1,14.03.62,2.05,1.64,5.37,2.38,7.9,7.21,24.79,2.69,49.27-4.6,73.4-2.76,9.26-6.2,22.49-9.95,31.31-19.67,45.07-50.79,85-87.27,117.62h0Z"/>
      <polygon class="cls-4" points="595.79 251.12 604.99 240.19 598.9 252.26 617.66 255.96 598.56 254.57 600.96 267.78 595.24 254.86 577.96 259.33 593.52 252.72 580.45 242.27 595.79 251.12"/>
      <polygon class="cls-4" points="598.01 282.38 612.37 274.65 600.47 284.16 616.88 291.96 599 286.17 594.78 298.73 595.62 285.64 576.61 285.6 595.01 283.3 587.48 270.71 598.01 282.38"/>
      <polygon class="cls-4" points="587.99 317.16 594.91 305.35 591.25 318.03 610.32 320.02 591.36 320.38 596.23 333.42 588.16 320.96 572.1 327.03 586.08 318.98 571.29 309.68 587.99 317.16"/>
      <polygon class="cls-4" points="579.32 352.81 582.15 339.99 582.71 353.17 601.55 352.25 583.57 355.5 592.37 367.75 580.7 356.57 567.3 365.07 578.07 354.91 560.99 347.91 579.32 352.81"/>
      <polygon class="cls-4" points="558.36 393.38 539.41 390.49 558.48 391.04 554.9 377.89 561.75 390.62 578.48 385.37 563.65 392.68 577.58 402.6 561.55 394.39 553.43 405.77 558.36 393.38"/>
      <polygon class="cls-4" points="535.77 426.29 541.47 414.11 539.09 427 558.19 428.11 539.43 429.36 545.54 442.22 536.32 430.1 521 436.94 534.05 428.2 518.48 419.57 535.77 426.29"/>
    </g>
    <g>
      <path class="cls-9" d="M537.66,471.14c7.26-8.19,17.13-14.38,23.29-23.45,22.14-31.69,38.53-67.05,50.09-103.84,6.55-21.14,19.72-58.46,11.55-79.19-4.01-9.93-12.07-18.4-19.93-25.69,9.55,6.08,18.58,13.72,24.06,23.83,12.97,25.86-3.65,73.43-12.45,99.77-11.24,31.91-27.99,62-50.22,87.53-7.4,8.91-17.66,13.84-26.39,21.05h0Z"/>
      <polygon class="cls-4" points="623.79 265.66 632.98 254.73 626.9 266.8 645.66 270.5 626.56 269.11 628.96 282.32 623.24 269.39 605.96 273.86 621.52 267.26 608.45 256.81 623.79 265.66"/>
      <polygon class="cls-4" points="624.84 308.38 628.56 295.72 628.22 308.85 647.18 308.55 628.92 311.19 636.92 323.66 625.97 312.17 611.95 320.18 623.45 310.43 606.78 302.91 624.84 308.38"/>
      <polygon class="cls-4" points="617.29 335.99 630.83 327.6 619.89 337.67 636.89 344.79 618.62 339.76 615.58 352.55 615.22 339.37 596.35 340.16 614.4 337.04 605.78 324.74 617.29 335.99"/>
      <polygon class="cls-4" points="604.09 370.52 613.29 359.59 607.2 371.66 625.96 375.36 606.87 373.97 609.26 387.18 603.54 374.25 586.26 378.72 601.83 372.12 588.75 361.67 604.09 370.52"/>
      <polygon class="cls-4" points="588.7 402.82 578.3 391.1 591.38 401.55 603.4 392.12 594.2 403.04 612.03 408.93 593.27 405.23 592.27 418.31 589.87 405.1 571.42 407.29 588.7 402.82"/>
      <polygon class="cls-4" points="580.95 427.66 599.94 430.35 580.88 430 584.75 443.14 577.63 430.46 561.04 435.89 575.68 428.41 561.56 418.63 577.74 426.68 585.6 415.21 580.95 427.66"/>
    </g>
    <g>
      <path class="cls-9" d="M560.85,227.99c-15.63.45-34.99,2.2-44.74,15.92-11.18,16.46-20.28,34.22-28.64,52.28-15.15,33.36-28.98,67.87-36.15,103.89-2.22,11.71-4.04,23.78-.41,35.44,3.25,11.7,10.15,22.3,18.06,31.49-14.33-11.87-25.78-29.69-26.07-49.07-.11-9.52,1.22-18.97,2.81-28.33,6.38-33.86,18.94-66.25,33.99-97.13,8.34-16.74,17.58-33.35,29.06-48.21,0,0,2.9-3.72,2.9-3.72,11.7-14.27,32.38-14.85,49.17-12.56h0Z"/>
      <polygon class="cls-4" points="519.94 231.64 526.4 219.69 523.23 232.45 542.32 234.12 523.42 234.8 528.75 247.79 520.26 235.45 504.46 241.81 518.1 233.49 503.01 224.44 519.94 231.64"/>
      <polygon class="cls-4" points="496.26 268.41 509.65 259.92 498.88 270.07 515.97 277.07 497.64 272.17 494.8 285 494.25 271.81 475.41 272.74 493.39 269.49 484.59 257.24 496.26 268.41"/>
      <polygon class="cls-4" points="479.78 297.12 486.24 285.17 483.07 297.93 502.16 299.6 483.26 300.29 488.59 313.27 480.09 300.93 464.3 307.29 477.94 298.98 462.85 289.92 479.78 297.12"/>
      <polygon class="cls-4" points="467.32 323.75 468.33 310.68 470.72 323.89 489.17 321.7 471.89 326.17 482.29 337.88 469.21 327.44 457.19 336.87 466.39 325.94 448.56 320.06 467.32 323.75"/>
      <polygon class="cls-4" points="458.56 347.91 467.76 336.98 461.67 349.05 480.43 352.75 461.34 351.36 463.73 364.57 458.01 351.64 440.73 356.12 456.3 349.51 443.22 339.06 458.56 347.91"/>
      <polygon class="cls-4" points="449.47 375.91 449.36 362.74 452.86 375.91 470.99 372.96 454.21 378.14 465.53 389.48 451.66 379.53 440.53 389.49 448.73 378.14 430.53 372.96 449.47 375.91"/>
      <polygon class="cls-4" points="444.86 399.08 456 389.12 447.79 400.46 465.99 405.65 447.05 402.7 447.16 415.86 443.67 402.7 425.54 405.65 442.31 400.46 431 389.12 444.86 399.08"/>
      <polygon class="cls-4" points="447.33 429.17 450.51 416.41 450.72 429.58 469.61 428.89 451.52 431.91 460.02 444.25 448.62 432.95 434.98 441.26 446.03 431.25 429.1 424.06 447.33 429.17"/>
    </g>
    <g>
      <path class="cls-9" d="M577.55,229.95c-49.51,14.09-59.29,43.14-72.69,88.54-3.22,11.23-6.65,22.73-9.64,33.97-3.6,14.09-6.11,28.51-7.58,42.99-2.79,26.29-1.97,52.69.71,79.26-6.12-22.95-9.06-46.88-8.63-70.86.28-23.96,4.53-47.96,11.52-70.84,8.17-27.1,16.58-61.06,37.4-81.41,1.46-1.59,3.57-3.17,5.2-4.58,1.25-1.17,4.21-3.03,5.6-4.04,0,0,.94-.65.94-.65.32-.2.66-.38.99-.57,10.97-6.52,23.57-10.34,36.18-11.8h0Z"/>
      <polygon class="cls-4" points="549.58 239.83 558.77 228.91 552.69 240.98 571.45 244.67 552.35 243.29 554.75 256.5 549.03 243.57 531.75 248.04 547.31 241.44 534.24 230.99 549.58 239.83"/>
      <polygon class="cls-4" points="520.9 259.47 519.1 246.26 524.25 259.26 541.77 255.18 525.87 261.43 538.51 272.12 523.53 262.98 513.82 273.67 520.46 261.77 501.82 257.68 520.9 259.47"/>
      <polygon class="cls-4" points="510.68 291.04 525.54 283.75 513.05 292.88 529.05 301.11 511.45 294.84 506.48 307.22 508.1 294.21 489.03 293.63 507.63 291.86 500.81 279.13 510.68 291.04"/>
      <polygon class="cls-4" points="495.89 320.58 496.89 307.51 499.29 320.72 517.74 318.53 500.46 323 510.86 334.72 497.78 324.27 485.76 333.7 494.96 322.78 477.13 316.89 495.89 320.58"/>
      <polygon class="cls-4" points="488.12 354.82 502.83 347.39 490.52 356.64 506.65 364.74 488.96 358.62 484.22 371.06 485.6 358.02 466.54 357.61 485.09 355.68 478.04 342.98 488.12 354.82"/>
      <polygon class="cls-4" points="481.91 386.94 491.1 376.01 485.02 388.08 503.78 391.78 484.68 390.39 487.08 403.6 481.36 390.67 464.08 395.14 479.64 388.54 466.57 378.09 481.91 386.94"/>
      <polygon class="cls-4" points="485.42 416.48 491.85 404.51 488.72 417.28 507.81 418.91 488.92 419.63 494.3 432.61 485.76 420.28 469.99 426.67 483.59 418.33 468.48 409.3 485.42 416.48"/>
      <polygon class="cls-4" points="478.63 446.42 462.28 438.55 480.12 444.41 484.44 431.87 483.49 444.95 502.52 445.07 484.08 447.3 491.53 459.9 481.08 448.2 466.65 455.88 478.63 446.42"/>
    </g>
    <g>
      <path class="cls-9" d="M489.87,476.45c28.56-83.85,60.55-175.55,90.26-259-18.55,89.73-49.14,177.13-90.26,259h0Z"/>
      <polygon class="cls-4" points="564.11 257.86 568.26 245.5 567.94 258.43 586.67 258.47 568.68 261.09 576.11 273.48 565.31 262.16 551.17 269.77 562.49 260.17 546.32 252.48 564.11 257.86"/>
      <polygon class="cls-4" points="555.79 286.93 564.99 276 558.9 288.07 577.66 291.77 558.56 290.38 560.96 303.59 555.24 290.66 537.96 295.13 553.52 288.53 540.45 278.08 555.79 286.93"/>
      <polygon class="cls-4" points="544.84 322.03 526.64 316.84 545.58 319.79 545.46 306.63 548.96 319.79 567.09 316.84 550.31 322.03 561.63 333.37 547.76 323.41 536.63 333.37 544.84 322.03"/>
      <polygon class="cls-4" points="535.86 350.21 545.06 339.28 538.97 351.35 557.73 355.05 538.64 353.66 541.03 366.87 535.31 353.94 518.03 358.41 533.6 351.81 520.52 341.36 535.86 350.21"/>
      <polygon class="cls-4" points="523.41 382.87 526.59 370.11 526.81 383.27 545.7 382.59 527.6 385.61 536.1 397.94 524.7 386.64 511.06 394.96 522.11 384.95 505.19 377.75 523.41 382.87"/>
      <polygon class="cls-4" points="514.76 405.25 523.95 394.33 517.87 406.4 536.63 410.09 517.53 408.71 519.93 421.92 514.21 408.99 496.93 413.46 512.49 406.86 499.42 396.41 514.76 405.25"/>
      <polygon class="cls-4" points="504.95 435.18 514.15 424.26 508.07 436.33 526.83 440.02 507.73 438.64 510.13 451.85 504.41 438.92 487.13 443.39 502.69 436.78 489.62 426.34 504.95 435.18"/>
    </g>
  </g>
  <g>
    <path class="cls-6" d="M638.55,231.79c-10.84-3.85-10.95-3.42-31.3-1.72-20.35,1.7-26.07-9.7-35.22,6.72-2.6,4.67,17.14,8.07,37.49,6.37,20.35-1.7,34.15-9.56,29.03-11.38Z"/>
    <path class="cls-6" d="M629.71,208.35c-11.66.06-11.6.49-30.18,8.88-18.58,8.39-28.2-.28-30.76,18.03-.73,5.21,19.17,1.75,37.75-6.63s28.7-20.3,23.2-20.27Z"/>
    <path class="cls-6" d="M611.63,188.42c-10.49,5.06-10.24,5.42-23.02,20.81-12.78,15.38-25.58,11.88-19.19,29.12,1.82,4.91,18.13-6.69,30.91-22.08,12.78-15.38,16.26-30.25,11.3-27.85Z"/>
    <path class="cls-6" d="M515.19,208.09c11.63.47,11.54.9,29.37,9.94,17.82,9.03,28.18.72,29.15,19.09.28,5.23-19.29,1.07-37.12-7.96-17.82-9.03-26.9-21.29-21.41-21.07Z"/>
    <path class="cls-6" d="M533.81,189.93c10.62,4.34,10.38,4.72,23.58,19.21,13.2,14.49,25.89,10.11,20,27.78-1.68,5.03-18.3-5.44-31.51-19.94-13.2-14.49-17.1-29.1-12.08-27.05Z"/>
    <path class="cls-6" d="M559.28,178.36c7.31,8.48,6.91,8.72,11.67,27.47,4.76,18.75,18.03,20.25,4.44,33.67-3.87,3.81-13.55-12.78-18.31-31.54-4.76-18.75-1.25-33.61,2.2-29.6Z"/>
    <path class="cls-2" d="M578.87,244.64c-1.65,2.04-18.03-1.13-29.46-9.41-11.43-8.28-15.23-19.78-11.76-19.12,4.27.82,12.82,1.21,24.25,9.49,11.43,8.28,18.62,17,16.97,19.04Z"/>
    <path class="cls-2" d="M579.43,242.27c-2.34,1.29-16.02-7.67-23.1-19.58-7.08-11.91-5.89-24.02-2.99-22.12,3.57,2.33,11.23,5.83,18.31,17.74,7.08,11.91,10.12,22.67,7.78,23.96Z"/>
    <path class="cls-6" d="M588.66,181.09c2.56,10.76,2.1,10.81-2.37,29.83-4.47,19.02,6.62,25.94-11.66,32.42-5.2,1.84-6.11-17.29-1.64-36.3,4.47-19.02,14.46-31.03,15.67-25.94Z"/>
    <path class="cls-2" d="M579.19,244.85c-2.66.37-11.68-12.91-13.47-26.58-1.8-13.67,4.08-24.57,6-21.76,2.36,3.46,8.01,9.47,9.8,23.14,1.8,13.67.33,24.82-2.32,25.19Z"/>
    <path class="cls-2" d="M563.94,241.77c.59,2.47,16.98,5.6,31.15,2.23,14.16-3.37,22.81-12.48,19.34-13.14-4.27-.82-12.26-3.61-26.42-.25-14.16,3.37-24.66,8.69-24.06,11.16Z"/>
    <path class="cls-2" d="M564.49,239.41c1.55,2.04,18.09-1.12,29.91-9.4,11.83-8.28,16.18-19.77,12.68-19.11-4.31.82-12.88,1.2-24.71,9.48-11.83,8.28-19.44,16.99-17.89,19.03Z"/>
  </g>
  <g>
    <path class="cls-5" d="M284.32,65.29c-11.45,1.11-11.37,1.55-29.08,11.71-17.71,10.16-27.73,2.26-29.05,21.01-.38,5.33,18.95.05,36.66-10.11,17.71-10.16,26.88-23.13,21.47-22.61Z"/>
    <path class="cls-5" d="M266.39,47.81c-10.53,4.99-10.3,5.36-23.58,20.83-13.28,15.47-25.66,11.69-20.23,29.36,1.55,5.03,18.11-6.53,31.38-22,13.28-15.47,17.4-30.55,12.42-28.19Z"/>
    <path class="cls-5" d="M241.56,37.41c-7.36,9.03-6.97,9.25-12.03,28.6-5.06,19.35-18.14,21.6-5.05,34.51,3.72,3.67,13.59-13.75,18.64-33.1,5.06-19.35,1.91-34.28-1.57-30.02Z"/>
    <path class="cls-5" d="M162.55,96.09c10.74-4.5,10.84-4.07,30.81-3.44,19.97.63,25.83-11.29,34.5,4.94,2.46,4.62-17.02,9.14-36.99,8.51-19.97-.63-33.39-7.89-28.32-10.01Z"/>
    <path class="cls-5" d="M171.71,71.75c11.46-.57,11.4-.13,29.5,7.41,18.1,7.53,27.74-1.81,29.89,16.69.61,5.26-18.88,2.82-36.99-4.71-18.1-7.53-27.82-19.11-22.4-19.39Z"/>
    <path class="cls-5" d="M189.89,50.48c10.21,4.58,9.96,4.97,22.21,19.94,12.26,14.97,24.91,10.71,18.29,28.61-1.88,5.09-17.69-5.83-29.95-20.81s-15.38-29.91-10.55-27.75Z"/>
    <path class="cls-3" d="M235.71,102.21c-.63,2.55-16.81,6.62-30.67,3.96-13.86-2.66-22.18-11.47-18.75-12.33,4.22-1.07,12.13-4.34,25.99-1.68,13.86,2.66,24.07,7.51,23.44,10.06Z"/>
    <path class="cls-3" d="M235.21,99.84c-1.57,2.16-17.76-.16-29.22-7.95s-15.52-19.26-12.08-18.77c4.23.6,12.64.52,24.1,8.31s18.77,16.25,17.2,18.41Z"/>
    <path class="cls-5" d="M217.65,40.5c6.88,8.66,6.48,8.91,10.49,28.03,4.01,19.12,16.99,20.7,3.17,34.3-3.93,3.87-12.86-13.07-16.87-32.19-4.01-19.12-.04-34.23,3.2-30.14Z"/>
    <path class="cls-3" d="M236.1,102.27c-2.25,1.46-16.05-6.74-23.47-18.36-7.42-11.62-6.71-23.98-3.79-22.25,3.6,2.14,11.26,5.19,18.68,16.81,7.42,11.62,10.82,22.34,8.57,23.8Z"/>
    <path class="cls-3" d="M220.97,105.94c1.58,1.99,17.76-2.13,29.16-11.18,11.4-9.05,15.38-20.97,11.95-20.1-4.22,1.07-12.64,1.92-24.04,10.97-11.4,9.05-18.65,18.32-17.07,20.3Z"/>
    <path class="cls-3" d="M220.47,103.57c2.27,1.19,15.91-8.68,23.11-21.19s6.28-24.77,3.39-22.68c-3.56,2.57-11.16,6.55-18.37,19.05-7.2,12.51-10.41,23.63-8.14,24.82Z"/>
  </g>
</svg>