<?xml version="1.0" encoding="UTF-8"?>
<svg id="Layer_1" data-name="Layer 1" xmlns="http://www.w3.org/2000/svg" viewBox="0 0 792 432">
  <defs>
    <style>
      .cls-1 {
        fill: #8dc63f;
      }

      .cls-2 {
        fill: #009444;
      }

      .cls-3 {
        fill: #006838;
      }

      .cls-4 {
        fill: #39b54a;
      }
    </style>
  </defs>
  <path class="cls-3" d="M608.24,99.58c-58.49,24.53-57.23,26.71-131.35,109.27-74.12,82.55-142.49,57.16-113.18,158.37,8.34,28.78,100.46-30.67,174.58-113.23,74.12-82.55,97.59-165.99,69.96-154.41Z"/>
  <path class="cls-3" d="M702.95,202.7c-62.58,10.31-61.86,12.74-153.08,75.88-91.22,63.15-151.86,22.61-146.78,127.85,1.44,29.93,104.83-6.58,196.06-69.72,91.22-63.15,133.38-138.88,103.81-134.01Z"/>
  <path class="cls-2" d="M739.97,277.05c-62.66-9.86-62.73-7.33-169.17,23.98-106.44,31.31-151.28-26.21-179.5,75.31-8.03,28.87,101.6,26.67,208.03-4.64,106.44-31.31,170.24-89.99,140.63-94.64Z"/>
  <path class="cls-2" d="M663.42,155.68c-62.12,12.81-61.3,15.2-149.93,81.94-88.62,66.74-150.83,28.67-141.55,133.62,2.64,29.85,104.49-10.76,193.11-77.51,88.62-66.74,127.72-144.11,98.37-138.06Z"/>
  <path class="cls-3" d="M463.36,35.25c-36.8,51.66-34.57,52.86-54.07,162.08-19.51,109.22-90.99,123.66-12.76,194.24,22.25,20.07,69.23-79,88.73-188.22,19.51-109.22-4.51-192.5-21.89-168.1Z"/>
  <path class="cls-2" d="M541.97,63.79c-49.63,39.5-47.82,41.26-96.73,140.84-48.9,99.59-121.6,93.73-65.9,183.16,15.84,25.44,88.35-56.81,137.25-156.4,48.9-99.59,48.82-186.26,25.37-167.61Z"/>
  <path class="cls-3" d="M183.76,99.58c58.49,24.53,57.23,26.71,131.35,109.27,74.12,82.55,142.49,57.16,113.18,158.37-8.34,28.78-100.46-30.67-174.58-113.23-74.12-82.55-97.59-165.99-69.96-154.41Z"/>
  <path class="cls-3" d="M89.05,202.7c62.58,10.31,61.86,12.74,153.08,75.88,91.22,63.15,151.86,22.61,146.78,127.85-1.44,29.93-104.83-6.58-196.06-69.72-91.22-63.15-133.38-138.88-103.81-134.01Z"/>
  <path class="cls-2" d="M52.03,277.05c62.66-9.86,62.73-7.33,169.17,23.98,106.44,31.31,151.28-26.21,179.5,75.31,8.03,28.87-101.6,26.67-208.03-4.64-106.44-31.31-170.24-89.99-140.63-94.64Z"/>
  <path class="cls-2" d="M128.58,155.68c62.12,12.81,61.3,15.2,149.93,81.94,88.62,66.74,150.83,28.67,141.55,133.62-2.64,29.85-104.49-10.76-193.11-77.51-88.62-66.74-127.72-144.11-98.37-138.06Z"/>
  <path class="cls-3" d="M328.64,35.25c36.8,51.66,34.57,52.86,54.07,162.08,19.51,109.22,90.99,123.66,12.76,194.24-22.25,20.07-69.23-79-88.73-188.22-19.51-109.22,4.51-192.5,21.89-168.1Z"/>
  <path class="cls-2" d="M250.03,63.79c49.63,39.5,47.82,41.26,96.73,140.84,48.9,99.59,121.6,93.73,65.9,183.16-15.84,25.44-88.35-56.81-137.25-156.4-48.9-99.59-48.82-186.26-25.37-167.61Z"/>
  <path class="cls-4" d="M437.63,402.71c-6.26,13.15-97.65,13.02-169-20.95-71.36-33.98-106.08-94.1-86.72-94.1,23.84,0,69.95-7.01,141.3,26.96,71.36,33.98,120.68,74.94,114.42,88.09Z"/>
  <path class="cls-4" d="M437.64,388.94c-10.85,9.72-95.11-25.65-147.84-84.53-52.72-58.88-61.56-127.74-43.7-120.27,21.99,9.2,67.24,20.51,119.96,79.39,52.72,58.88,82.43,115.69,71.58,125.41Z"/>
  <path class="cls-2" d="M410.19,47.51c27.14,57.33,24.74,58.11,24.74,169.06,0,110.95,67.84,137.73-21.58,193.46-25.43,15.85-54.26-89.94-54.26-200.89,0-110.95,38.28-188.71,51.1-161.63Z"/>
  <path class="cls-4" d="M439.64,403.57c-13.71,4.93-78.49-59.52-105.22-133.9-26.73-74.38-9.03-141.51,4.71-127.88,16.92,16.79,54.6,44.28,81.32,118.66,26.73,74.38,32.89,138.19,19.18,143.12Z"/>
  <path class="cls-4" d="M354.37,402.71c6.26,13.15,97.65,13.02,169-20.95,71.36-33.98,106.08-94.1,86.72-94.1-23.84,0-69.95-7.01-141.3,26.96-71.36,33.98-120.68,74.94-114.42,88.09Z"/>
  <path class="cls-4" d="M354.36,388.94c10.85,9.72,95.11-25.65,147.84-84.53,52.72-58.88,61.56-127.74,43.7-120.27-21.99,9.2-67.24,20.51-119.96,79.39-52.72,58.88-82.43,115.69-71.58,125.41Z"/>
  <path class="cls-1" d="M285.85,331.48c-3.9,19.87,53.33,60.84,111.09,55.97,68.21-5.75,137.31-60.35,136.05-75.24-.06-.73-.4-1.86-1.33-3.05-7.73-10.02-39.23,6.81-73.63,9.38-31.99,2.38-35.01-9.92-71.44-13.08-42.72-3.71-97.22,8.11-100.74,26.03Z"/>
</svg>