<?xml version="1.0" encoding="UTF-8"?>
<svg xmlns="http://www.w3.org/2000/svg" viewBox="0 0 792 792">
  <defs>
    <style>
      .cls-1, .cls-2 {
        fill: none;
      }

      .cls-2, .cls-3 {
        stroke: #231f20;
        stroke-miterlimit: 10;
      }

      .cls-4 {
        fill: #8dc63f;
      }

      .cls-5 {
        fill: #997149;
      }

      .cls-6 {
        fill: #d1d3d4;
      }

      .cls-7 {
        fill: #6d6e71;
      }

      .cls-8 {
        fill: #9b8579;
      }

      .cls-9 {
        fill: #a97c50;
      }

      .cls-10 {
        fill: #808285;
      }

      .cls-3 {
        fill: #1c75bc;
      }

      .cls-11 {
        fill: #009444;
      }

      .cls-12 {
        fill: #939598;
      }

      .cls-13 {
        fill: #006838;
      }

      .cls-14 {
        fill: #39b54a;
      }
    </style>
  </defs>
  <g id="Layer_3" data-name="Layer 3">
    <rect class="cls-8" width="792" height="792"/>
  </g>
  <g id="Layer_2" data-name="Layer 2">
    <rect class="cls-3" x="65.03" y="62.92" width="657.24" height="624.89"/>
    <rect class="cls-7" x="396" y="663.44" width="344.76" height="48.75"/>
    <rect class="cls-12" x="396" y="646" width="369.8" height="17.44"/>
    <polygon class="cls-6" points="691.18 88.56 680.25 99.94 680.25 632.51 691.18 641.61 691.18 88.56"/>
    <line class="cls-2" x1="765.8" y1="83.79" x2="549.14" y2="83.79"/>
    <line class="cls-2" x1="81.68" y1="88.56" x2="76.8" y2="83.79"/>
    <polygon class="cls-6" points="765.8 83.79 746.67 99.94 396 99.94 396 83.79 765.8 83.79"/>
    <polygon class="cls-6" points="765.8 646 396 646 396 632.51 745.86 632.51 765.8 646"/>
    <rect class="cls-12" x="691.18" y="88.56" width="49.59" height="553.04"/>
    <rect class="cls-12" x="396" y="42.06" width="369.8" height="41.73"/>
    <rect class="cls-7" x="51.24" y="663.44" width="344.76" height="48.75"/>
    <rect class="cls-12" x="26.2" y="646" width="369.8" height="17.44"/>
    <polygon class="cls-6" points="100.82 88.56 111.75 99.94 111.75 632.51 100.82 641.61 100.82 88.56"/>
    <line class="cls-2" x1="26.2" y1="83.79" x2="242.86" y2="83.79"/>
    <polygon class="cls-6" points="26.2 83.79 45.33 99.94 396 99.94 396 83.79 26.2 83.79"/>
    <polygon class="cls-6" points="26.2 646 396 646 396 632.51 46.14 632.51 26.2 646"/>
    <rect class="cls-12" x="51.24" y="88.56" width="49.59" height="553.04" transform="translate(152.06 730.17) rotate(-180)"/>
    <rect class="cls-12" x="26.2" y="42.06" width="369.8" height="41.73"/>
    <rect class="cls-1" x="81.68" y="62.92" width="620.42" height="600.52"/>
    <rect class="cls-12" x="111.75" y="346.82" width="568.5" height="36.15"/>
    <rect class="cls-12" x="129.71" y="348.15" width="532.57" height="36.15" transform="translate(762.23 -29.77) rotate(90)"/>
    <ellipse class="cls-10" cx="397.39" cy="638.51" rx="48.37" ry="7.48"/>
    <g>
      <path class="cls-13" d="M439.4,495.16c-11.96,5.01-11.7,5.46-26.86,22.34-15.16,16.88-29.13,11.69-23.14,32.38,1.7,5.89,20.54-6.27,35.7-23.15,15.16-16.88,19.95-33.94,14.3-31.57Z"/>
      <path class="cls-13" d="M458.76,516.25c-12.8,2.11-12.65,2.6-31.3,15.52-18.65,12.91-31.05,4.62-30.01,26.14.3,6.12,21.43-1.34,40.09-14.26,18.65-12.91,27.27-28.4,21.23-27.4Z"/>
      <path class="cls-11" d="M466.33,531.45c-12.81-2.02-12.83-1.5-34.59,4.9-21.76,6.4-30.93-5.36-36.7,15.4-1.64,5.9,20.77,5.45,42.54-.95,21.76-6.4,34.81-18.4,28.75-19.35Z"/>
      <path class="cls-11" d="M450.68,506.63c-12.7,2.62-12.53,3.11-30.66,16.75-18.12,13.65-30.84,5.86-28.94,27.32.54,6.1,21.36-2.2,39.48-15.85,18.12-13.65,26.11-29.46,20.11-28.23Z"/>
      <path class="cls-13" d="M409.77,482.01c-7.52,10.56-7.07,10.81-11.06,33.14-3.99,22.33-18.61,25.28-2.61,39.71,4.55,4.1,14.15-16.15,18.14-38.48,3.99-22.33-.92-39.36-4.48-34.37Z"/>
      <path class="cls-11" d="M425.84,487.85c-10.15,8.08-9.78,8.44-19.78,28.8-10,20.36-24.86,19.16-13.47,37.45,3.24,5.2,18.06-11.62,28.06-31.98,10-20.36,9.98-38.08,5.19-34.27Z"/>
      <path class="cls-13" d="M352.6,495.16c11.96,5.01,11.7,5.46,26.86,22.34,15.16,16.88,29.13,11.69,23.14,32.38-1.7,5.89-20.54-6.27-35.7-23.15-15.16-16.88-19.95-33.94-14.3-31.57Z"/>
      <path class="cls-13" d="M333.24,516.25c12.8,2.11,12.65,2.6,31.3,15.52,18.65,12.91,31.05,4.62,30.01,26.14-.3,6.12-21.43-1.34-40.09-14.26-18.65-12.91-27.27-28.4-21.23-27.4Z"/>
      <path class="cls-11" d="M325.67,531.45c12.81-2.02,12.83-1.5,34.59,4.9,21.76,6.4,30.93-5.36,36.7,15.4,1.64,5.9-20.77,5.45-42.54-.95-21.76-6.4-34.81-18.4-28.75-19.35Z"/>
      <path class="cls-11" d="M341.32,506.63c12.7,2.62,12.53,3.11,30.66,16.75,18.12,13.65,30.84,5.86,28.94,27.32-.54,6.1-21.36-2.2-39.48-15.85s-26.11-29.46-20.11-28.23Z"/>
      <path class="cls-13" d="M382.23,482.01c7.52,10.56,7.07,10.81,11.06,33.14,3.99,22.33,18.61,25.28,2.61,39.71-4.55,4.1-14.15-16.15-18.14-38.48s.92-39.36,4.48-34.37Z"/>
      <path class="cls-11" d="M366.16,487.85c10.15,8.08,9.78,8.44,19.78,28.8,10,20.36,24.86,19.16,13.47,37.45-3.24,5.2-18.06-11.62-28.06-31.98-10-20.36-9.98-38.08-5.19-34.27Z"/>
      <path class="cls-14" d="M404.51,557.14c-1.28,2.69-19.97,2.66-34.56-4.28-14.59-6.95-21.69-19.24-17.73-19.24,4.87,0,14.3-1.43,28.89,5.51,14.59,6.95,24.67,15.32,23.39,18.01Z"/>
      <path class="cls-14" d="M404.51,554.33c-2.22,1.99-19.45-5.25-30.23-17.28-10.78-12.04-12.59-26.12-8.94-24.59,4.5,1.88,13.75,4.19,24.53,16.23s16.85,23.66,14.63,25.64Z"/>
      <path class="cls-11" d="M398.9,484.52c5.55,11.72,5.06,11.88,5.06,34.57,0,22.68,13.87,28.16-4.41,39.56-5.2,3.24-11.09-18.39-11.09-41.07,0-22.68,7.83-38.59,10.45-33.05Z"/>
      <path class="cls-14" d="M404.92,557.32c-2.8,1.01-16.05-12.17-21.51-27.38-5.46-15.21-1.85-28.93.96-26.15,3.46,3.43,11.16,9.05,16.63,24.26s6.73,28.26,3.92,29.26Z"/>
      <path class="cls-14" d="M387.49,557.14c1.28,2.69,19.97,2.66,34.56-4.28,14.59-6.95,21.69-19.24,17.73-19.24-4.87,0-14.3-1.43-28.89,5.51-14.59,6.95-24.67,15.32-23.39,18.01Z"/>
      <path class="cls-14" d="M387.49,554.33c2.22,1.99,19.45-5.25,30.23-17.28s12.59-26.12,8.94-24.59c-4.5,1.88-13.75,4.19-24.53,16.23-10.78,12.04-16.85,23.66-14.63,25.64Z"/>
      <path class="cls-4" d="M373.48,542.58c-.8,4.06,10.9,12.44,22.71,11.44,13.95-1.18,28.07-12.34,27.82-15.38-.01-.15-.08-.38-.27-.62-1.58-2.05-8.02,1.39-15.05,1.92-6.54.49-7.16-2.03-14.61-2.67-8.73-.76-19.88,1.66-20.6,5.32Z"/>
      <g>
        <path class="cls-5" d="M424.42,639.99h-56.84c-2.31,0-4.33-1.59-4.87-3.83l-16.32-67.77c-.76-3.15,1.63-6.18,4.87-6.18h89.49c3.24,0,5.63,3.03,4.87,6.18l-16.32,67.77c-.54,2.25-2.55,3.83-4.87,3.83Z"/>
        <rect class="cls-9" x="336.53" y="548.87" width="118.95" height="19.87" rx="9.94" ry="9.94"/>
      </g>
    </g>
  </g>
</svg>