<?xml version="1.0" encoding="UTF-8"?>
<svg id="Layer_1" data-name="Layer 1" xmlns="http://www.w3.org/2000/svg" viewBox="0 0 336 280">
  <defs>
    <style>
      .cls-1 {
        fill: #6d6e71;
      }

      .cls-2 {
        font-family: MyriadPro-Regular, 'Myriad Pro';
        font-size: 16px;
        stroke: #000;
        stroke-miterlimit: 10;
        stroke-width: .5px;
      }

      .cls-3 {
        letter-spacing: 0em;
      }

      .cls-4 {
        letter-spacing: 0em;
      }

      .cls-5 {
        letter-spacing: -.01em;
      }

      .cls-6 {
        letter-spacing: 0em;
      }

      .cls-7 {
        letter-spacing: 0em;
      }

      .cls-8 {
        letter-spacing: 0em;
      }

      .cls-9 {
        letter-spacing: -.01em;
      }

      .cls-10 {
        letter-spacing: 0em;
      }
    </style>
  </defs>
  <g>
    <rect class="cls-1" x="19.93" y="49.62" width="298.65" height="180.76" rx="11.5" ry="11.5"/>
    <path d="M307.08,50.12c6.07,0,11,4.93,11,11v157.76c0,6.07-4.93,11-11,11H31.43c-6.07,0-11-4.93-11-11V61.12c0-6.07,4.93-11,11-11h275.65M307.08,49.12H31.43c-6.6,0-12,5.4-12,12v157.76c0,6.6,5.4,12,12,12h275.65c6.6,0,12-5.4,12-12V61.12c0-6.6-5.4-12-12-12h0Z"/>
  </g>
  <text class="cls-2" transform="translate(116.01 120.57)"><tspan class="cls-7" x="0" y="0">P</tspan><tspan x="8.43" y="0">la</tspan><tspan class="cls-6" x="19.92" y="0">c</tspan><tspan class="cls-3" x="26.99" y="0">eholder </tspan><tspan class="cls-5" x="82.11" y="0">f</tspan><tspan x="86.58" y="0">or </tspan><tspan class="cls-10" x="-40.21" y="19.2">w</tspan><tspan class="cls-3" x="-28.6" y="19.2">ebsocket/</tspan><tspan class="cls-9" x="37.11" y="19.2">w</tspan><tspan class="cls-4" x="48.73" y="19.2">eb applic</tspan><tspan class="cls-8" x="109.85" y="19.2">a</tspan><tspan x="117.49" y="19.2">tion</tspan></text>
</svg>